# Alias OBJ Model File
# Exported from SketchUp, (c) 2000-2012 Trimble Navigation Limited
# File units = inches

mtllib painel.mtl

g Mesh1 Group1 Walls Model

usemtl Metal_Silver
v 19.8 0.05 -4.05
vt -0.3375 7.51624e-018
vn -1 5.49762e-019 -0
v 19.8 0.05 -0.05
vt -0.00416667 7.51624e-018
v 19.8 2.05 -0.05
vt -0.00416667 0.166667
v 19.8 86.55 -0.05
vt -0.00416667 7.20833
v 19.8 86.55 -4.05
vt -0.3375 7.20833
v 19.8 2.05 -4.05
vt -0.3375 0.166667
f 1/1/1 2/2/1 3/3/1 4/4/1 5/5/1 6/6/1 

vt -0.166667 0.00416667
vn -9.01954e-016 -1 1.09994e-017
vt -0.166667 0.3375
v 19.85 0.05 -4.05
vt -0.170833 0.3375
v 19.85 0.05 -0.05
vt -0.170833 0.00416667
f 2/7/2 1/8/2 7/9/2 8/10/2 

vt -0.170833 1.04556e-015
vn -5.52025e-030 -3.09794e-015 -1
vt -0.166667 1.05298e-015
vt -0.166667 0.166667
v 19.85 2.05 -4.05
vt -0.170833 0.166667
f 7/11/3 1/12/3 6/13/3 9/14/3 

v 19.85 2.05 -4.1
vt -0.170833 0.341667
vn -1.28957e-017 -1 3.09794e-015
v 17.8 2.05 -4.05
vt 2.14928e-018 0.3375
v 17.8 2.05 -4.1
vt 2.14928e-018 0.341667
f 10/15/4 9/9/4 6/8/4 11/16/4 12/17/4 

vt 0.00416667 7.42687e-018
vn 1 -5.49762e-019 2.41901e-035
vt 0.3375 9.39177e-020
vt 0.3375 0.166667
vt 0.341667 0.166667
v 19.85 86.55 -4.1
vt 0.341667 7.20833
v 19.85 86.55 -2.84217e-014
vt 4.13248e-036 7.20833
v 19.85 2.05 -2.84217e-014
vt 4.13248e-036 0.166667
v 19.85 2.05 -0.05
vt 0.00416667 0.166667
f 8/18/5 7/19/5 9/20/5 10/21/5 13/22/5 14/23/5 15/24/5 16/25/5 

vt -0.170833 7.20833
vn 0 -2.25437e-017 -1
vt 0 0.166667
v 17.8 86.55 -4.1
vt 0 7.20833
f 13/26/6 10/14/6 12/27/6 17/28/6 

vt -0.341667 7.20833
vn -1 5.49762e-019 -1.98359e-033
vt -0.341667 0.166667
v 17.8 86.55 -4.05
f 17/29/7 12/30/7 11/6/7 18/5/7 

vt -1.19904e-015 7.20833
vn -3.55271e-015 2.25437e-017 1
vt -1.19904e-015 0.166667
vt 0.166667 0.166667
vt 0.166667 7.20833
f 18/31/8 11/32/8 6/33/8 5/34/8 

v 17.8 86.55 -0.05
vt -3.96287e-018 0.00416667
vn 5.49762e-019 1 -2.25437e-017
v 17.8 86.55 -2.84217e-014
vt -3.96287e-018 -1.62502e-016
vt 0.170833 -1.62502e-016
vt 0.170833 0.341667
vt -3.96287e-018 0.341667
vt -3.96287e-018 0.3375
vt 0.166667 0.3375
vt 0.166667 0.00416667
f 19/35/9 20/36/9 14/37/9 13/38/9 17/39/9 18/40/9 5/41/9 4/42/9 

v 17.8 2.05 -0.05
v 17.8 2.05 -2.84217e-014
f 19/4/1 21/3/1 22/27/1 20/28/1 

vt -0.166667 7.20833
vn 7.10543e-015 -2.25437e-017 -1
vt 2.96059e-017 0.166667
vt 2.96059e-017 7.20833
f 4/43/10 3/13/10 21/44/10 19/45/10 

vt 2.65364e-020 0.00416667
vn -1.59218e-019 -1 6.2986e-018
vt -0.170833 -1.04977e-018
vt 2.65364e-020 -1.04977e-018
f 21/46/11 3/7/11 16/10/11 15/47/11 22/48/11 

vt 0.166667 7.45086e-018
vn 1.38573e-034 6.2986e-018 1
vt 0.170833 7.35919e-018
vt 0.170833 0.166667
f 2/49/12 8/50/12 16/51/12 3/33/12 

vn 0 2.25437e-017 1
vt 0.170833 7.20833
f 20/28/13 22/27/13 15/51/13 14/52/13 

g Mesh2 Group2 Walls Model

v 19.8 2.05 -0.05
vt 0.00416667 0.170833
vn 1 0 -0
v 19.8 2.05 -2.84217e-014
vt 0 0.170833
v 19.8 2.22045e-016 -2.84217e-014
vt 0 0
v 19.8 2.498e-016 -4.1
vt 0.341667 2.31296e-018
v 19.8 2.05 -4.1
vt 0.341667 0.170833
v 19.8 2.05 -4.05
vt 0.3375 0.170833
v 19.8 0.05 -4.05
vt 0.3375 0.00416667
v 19.8 0.05 -0.05
vt 0.00416667 0.00416667
f 23/53/14 24/54/14 25/55/14 26/56/14 27/57/14 28/58/14 29/59/14 30/60/14 

v 0.05 2.05 -0.05
vt 0 0.00416667
vn 0 1 -0
v 0.05 2.05 -2.84217e-014
vt 1.64583 0
vt 1.64583 0.00416667
f 31/61/15 32/55/15 24/62/15 23/63/15 

vt -0.00416667 0.170833
vn -1 0 -0
v 0.05 0.05 -0.05
vt -0.00416667 0.00416667
v 0.05 2.22045e-016 -0.05
vt -0.00416667 0
v 0.05 2.22045e-016 -2.84217e-014
f 31/64/16 33/65/16 34/66/16 35/55/16 32/54/16 

vn 0 0 -1
vt -1.64583 0.170833
vt -1.64583 0.00416667
f 33/61/17 31/54/17 23/67/17 30/68/17 

vt 1.64583 0.3375
v 4.05 0.05 -4.05
vt 0.333333 0.3375
v 0.05 0.05 -4.05
vt 0 0.3375
f 29/69/15 36/70/15 37/71/15 33/61/15 30/63/15 

vt 1.64583 0.170833
vn 0 0 1
v 4.05 2.05 -4.05
vt 0.333333 0.170833
vt 0.333333 0.00416667
f 28/72/18 38/73/18 36/74/18 29/63/18 

vt 1.64583 0.341667
v 4.05 2.05 -4.1
vt 0.333333 0.341667
f 27/75/15 39/76/15 38/70/15 28/69/15 

vt -1.64583 2.31296e-018
v 4.05 2.498e-016 -4.1
vt -0.333333 2.31296e-018
vt -0.333333 0.170833
f 26/77/17 40/78/17 39/79/17 27/67/17 

vn -2.29382e-021 -1 -6.83836e-018
v 0.05 2.498e-016 -4.05
vt 5.30552e-039 0.3375
v 4.05 2.498e-016 -4.05
vt -0.333333 0.3375
vt -0.333333 0.341667
vt -1.64583 0.341667
vt -1.64583 2.58165e-038
f 35/55/19 34/61/19 41/80/19 42/81/19 40/82/19 26/83/19 25/84/19 

vt -0.3375 0.00416667
vt -0.3375 2.31296e-018
f 33/65/16 37/85/16 41/86/16 34/66/16 

vt -0.333333 0.00416667
vt 0 2.31296e-018
f 36/87/17 42/78/17 41/88/17 37/61/17 

vt -0.341667 2.31296e-018
vt -0.3375 0.170833
vt -0.341667 0.170833
f 40/89/16 42/86/16 36/85/16 38/90/16 39/91/16 

f 32/54/18 35/55/18 25/62/18 24/72/18 

g Mesh3 Group3 Walls Model

v 100.8 86.55 -2.84217e-014
v 100.8 86.55 -0.05
vt 0.00416667 0
v 100.8 86.6 -0.05
v 100.8 88.6 -0.05
v 100.8 88.6 -2.84217e-014
f 43/55/14 44/92/14 45/60/14 46/53/14 47/54/14 

vt -6.91667 4.73016e-046
vn -3.59768e-016 -1 -1.90088e-031
v 17.8 86.55 -3.55271e-014
vt 8.52103e-031 5.92119e-016
v 17.8 86.55 -0.05
vt 8.52103e-031 0.00416667
v 19.8 86.55 -0.05
v 19.8 86.55 -4.1
vt -0.166667 0.341667
v 98.8 86.55 -4.1
vt -6.75 0.341667
v 98.8 86.55 -0.05
vt -6.75 0.00416667
vt -6.91667 0.00416667
f 43/93/20 48/94/20 49/95/20 50/7/20 51/96/20 52/97/20 53/98/20 44/99/20 

vt 6.91667 0.170833
vn -8.99421e-017 0 1
v 17.8 88.6 -3.55271e-014
vt -5.32564e-032 0.170833
vt -5.32564e-032 2.36848e-015
vt 6.91667 0
f 47/100/21 54/101/21 48/102/21 43/103/21 

vt 6.91667 0.00416667
vn 3.59768e-016 1 -0
v 17.8 88.6 -0.05
vt -6.14604e-017 0.00416667
vt -6.14604e-017 5.92119e-016
f 46/104/22 55/105/22 54/106/22 47/103/22 

v 98.8 86.6 -0.05
vn 8.99421e-017 3.55271e-015 -1
v 19.8 86.6 -0.05
v 17.8 86.6 -0.05
vt 3.74759e-019 0.00416667
vt 3.74759e-019 0.170833
vt -6.91667 0.170833
f 56/98/23 57/7/23 58/107/23 55/108/23 46/109/23 45/99/23 

v 19.8 86.6 -4.05
vn 3.59768e-016 1 -1.19827e-031
vt 6.75 0.00416667
v 98.8 86.6 -4.05
vt 6.75 0.3375
f 59/41/24 57/42/24 56/110/24 60/111/24 

vt -0.341667 2.36848e-015
vt -0.00416667 2.36848e-015
v 19.8 88.6 -4.05
v 19.8 88.6 -4.1
f 51/112/16 50/113/16 57/65/16 59/85/16 61/90/16 62/91/16 

vt -0.166667 2.36848e-015
vt 0 2.36848e-015
f 57/7/17 50/114/17 49/115/17 58/61/17 

vt -5.92119e-016 2.36848e-015
vt -5.92119e-016 0.170833
f 55/64/16 58/65/16 49/113/16 48/116/16 54/117/16 

vt 0.166667 0.170833
vn -4.49711e-017 -7.10543e-015 1
v 98.8 88.6 -4.05
vt 6.75 0.170833
f 61/118/25 59/42/25 60/110/25 63/119/25 

vt 0.341667 0
v 98.8 88.6 -4.1
f 60/59/14 56/60/14 53/92/14 52/120/14 64/57/14 63/58/14 

vt -6.75 0
vt -6.91667 0
f 53/121/17 56/98/17 45/99/17 44/122/17 

vn 4.49711e-017 0 -1
vt -0.166667 0.170833
vt -6.75 0.170833
f 51/114/26 62/123/26 64/124/26 52/121/26 

vt 0.166667 0.341667
vt 6.75 0.341667
f 62/125/22 61/41/22 63/111/22 64/126/22 

g Mesh4 Group4 Walls Model

v 98.8 0.05 -0.05
vt 0.00416667 7.42289e-018
vn 1 5.49762e-019 -0
v 98.8 0.05 -4.05
vt 0.3375 7.42289e-018
v 98.8 2.05 -4.05
v 98.8 86.55 -4.05
vt 0.3375 7.20833
v 98.8 86.55 -0.05
vt 0.00416667 7.20833
v 98.8 2.05 -0.05
f 65/127/27 66/128/27 67/20/27 68/129/27 69/130/27 70/25/27 

v 98.75 0.05 -0.05
vt -6.61197e-033 0.00416667
vn 9.13023e-016 -1 1.08628e-017
v 98.75 0.05 -4.05
vt -0.00416667 0.3375
f 71/131/28 72/71/28 66/132/28 65/65/28 

v 98.75 86.55 -4.1
vn -1 -5.49762e-019 2.41901e-035
v 98.75 2.05 -4.1
v 98.75 2.05 -4.05
vt -0.3375 -4.48835e-054
vt -0.00416667 7.24185e-018
v 98.75 2.05 -0.05
v 98.75 2.05 -0
v 98.75 86.55 -0
f 73/29/29 74/30/29 75/6/29 72/133/29 71/134/29 76/3/29 77/27/29 78/28/29 

v 100.8 86.55 -4.1
v 100.8 2.05 -4.1
f 79/26/6 80/14/6 74/27/6 73/28/6 

v 100.8 86.55 -4.05
vn 1 5.49762e-019 -1.98359e-033
v 100.8 2.05 -4.05
f 81/129/30 82/20/30 80/21/30 79/22/30 

vn 3.55271e-015 2.25437e-017 1
f 68/130/31 67/25/31 82/51/31 81/52/31 

vn 1.28967e-017 -1 3.0979e-015
vt -2.14945e-018 0.3375
vt -2.14945e-018 0.341667
f 82/9/32 67/132/32 75/135/32 74/136/32 80/15/32 

vt -0.00416667 1.05297e-015
vn 5.5206e-030 -3.0979e-015 -1
vt 1.8632e-030 1.04554e-015
vt 1.8632e-030 0.166667
f 66/137/33 72/138/33 75/139/33 67/3/33 

v 100.8 86.55 -0
vn -5.49762e-019 1 -2.25437e-017
v 100.8 86.55 -0.05
vt 0.170833 0.00416667
vt 0.00416667 0.3375
vt 0.170833 0.3375
vt 3.96287e-018 0.341667
vt 3.96287e-018 -1.62502e-016
f 83/37/34 84/140/34 69/60/34 68/141/34 81/142/34 79/38/34 73/143/34 78/144/34 

v 100.8 2.05 -0
v 100.8 2.05 -0.05
f 83/28/27 85/27/27 86/25/27 84/130/27 

f 78/28/13 77/27/13 85/51/13 83/52/13 

vt -5.30727e-020 -2.09953e-018
vn 3.18436e-019 -1 1.25972e-017
vt -5.30727e-020 0.00416667
vt -0.170833 -2.09953e-018
f 77/145/35 76/146/35 70/65/35 86/10/35 85/147/35 

vt -2.30954e-036 7.29433e-018
vn -5.5429e-034 1.25972e-017 1
vt 0.00416667 7.47767e-018
vt -2.30954e-036 0.166667
f 71/148/36 65/149/36 70/25/36 76/150/36 

vn -7.10543e-015 -2.25437e-017 -1
f 84/26/37 86/14/37 70/3/37 69/4/37 

g Mesh5 Group5 Walls Model

v 98.8 0.05 -0.05
v 98.8 2.05 -0.05
v 130.05 2.05 -0.05
vt -2.60417 0.170833
v 130.05 0.05 -0.05
vt -2.60417 0.00416667
f 87/61/17 88/54/17 89/151/17 90/152/17 

v 98.8 2.05 -0
v 98.8 0.05 -4.05
v 98.8 2.05 -4.05
v 98.8 2.05 -4.1
v 98.8 2.498e-016 -4.1
v 98.8 2.22045e-016 -0
f 91/54/16 88/64/16 87/65/16 92/85/16 93/90/16 94/91/16 95/89/16 96/55/16 

v 130.05 2.05 -0
vt 2.60417 0
vt 2.60417 0.00416667
f 88/61/15 91/55/15 97/153/15 89/154/15 

v 130.05 2.22045e-016 -0
vt 2.60417 0.170833
f 91/54/18 96/55/18 98/153/18 97/155/18 

vn 0 -1 -6.76965e-018
vt 0 0.341667
v 126.05 2.498e-016 -4.1
vt -2.27083 0.341667
v 126.05 2.498e-016 -4.05
vt -2.27083 0.3375
v 130.05 2.498e-016 -4.05
vt -2.60417 0.3375
vt -2.60417 0
f 96/55/38 95/156/38 99/157/38 100/158/38 101/159/38 98/160/38 

v 126.05 2.05 -4.1
vt -2.27083 0.170833
vt -2.27083 2.31296e-018
f 95/88/17 94/54/17 102/161/17 99/162/17 

v 126.05 2.05 -4.05
vt 2.27083 0.3375
vt 2.27083 0.341667
f 94/156/15 93/71/15 103/163/15 102/164/15 

v 126.05 0.05 -4.05
vt 2.27083 0.00416667
vt 2.27083 0.170833
f 93/54/18 92/61/18 104/165/18 103/166/18 

v 130.05 0.05 -4.05
vt 2.60417 0.3375
f 92/71/15 87/61/15 90/154/15 105/167/15 104/163/15 

vt 0.3375 2.31296e-018
f 98/55/14 101/168/14 105/59/14 90/60/14 89/53/14 97/54/14 

vt -2.60417 2.31296e-018
vt -2.27083 0.00416667
f 105/152/17 101/169/17 100/162/17 104/170/17 

f 103/58/14 104/59/14 100/168/14 99/56/14 102/57/14 

g Mesh6 Walls Model

v 130.05 126.05 -0.05
vt 10.8375 10.5042
v 98.8 0.05 -0.05
vt 8.23333 0.00416667
v 130.05 0.05 -0.05
vt 10.8375 0.00416667
f 106/171/18 107/172/18 108/173/18

v 98.8 86.55 -0.05
vt 8.23333 7.2125
f 107/172/18 106/171/18 109/174/18

v 97.7863 88.6 -0.05
vt 8.14886 7.38333
f 109/174/18 106/171/18 110/175/18

v 97.7863 123.962 -0.05
vt 8.14886 10.3302
f 110/175/18 106/171/18 111/176/18

v 97.6613 123.962 -0.05
vt 8.13845 10.3302
f 111/176/18 106/171/18 112/177/18

v 57.7816 123.962 -0.05
vt 4.81513 10.3302
f 112/177/18 106/171/18 113/178/18

v 57.6566 123.962 -0.05
vt 4.80471 10.3302
f 113/178/18 106/171/18 114/179/18

v 19.925 123.962 -0.05
vt 1.66042 10.3302
f 114/179/18 106/171/18 115/180/18

v 19.8 123.962 -0.05
vt 1.65 10.3302
f 115/180/18 106/171/18 116/181/18

v 0.05 126.05 -0.05
vt 0.00416667 10.5042
f 117/182/18 116/181/18 106/171/18

v 19.8 88.6 -0.05
vt 1.65 7.38333
f 117/182/18 118/183/18 116/181/18

v 19.8 86.55 -0.05
vt 1.65 7.2125
f 117/182/18 119/184/18 118/183/18

v 0.05 0.05 -0.05
f 120/60/18 119/184/18 117/182/18

v 19.8 0.05 -0.05
vt 1.65 0.00416667
f 119/184/18 120/60/18 121/185/18

vt 0.00984188 7.2125
vt 0.00984188 0.00416667
v 19.8 0.05 -4.05
vt 0.343175 0.00416667
v 19.8 86.55 -4.05
vt 0.343175 7.2125
f 119/186/14 121/187/14 122/188/14 123/189/14 

vt -1.65 0.00416667
v 4.05 126.05 -4.05
vt -0.3375 10.5042
vt -1.65 7.2125
f 122/190/17 124/191/17 123/192/17

v 4.05 0.05 -4.05
f 124/191/17 122/190/17 125/85/17

v 19.8 88.6 -4.05
vt -1.65 7.38333
f 123/192/17 124/191/17 126/193/17

v 19.8 123.962 -4.05
vt -1.65 10.3302
f 126/193/17 124/191/17 127/194/17

v 19.925 123.962 -4.05
vt -1.66042 10.3302
f 127/194/17 124/191/17 128/195/17

v 126.05 126.05 -4.05
vt -10.5042 10.5042
f 129/196/17 128/195/17 124/191/17

v 66.0661 123.962 -4.05
vt -5.50551 10.3302
f 129/196/17 130/197/17 128/195/17

v 98.8 123.962 -4.05
vt -8.23333 10.3302
f 129/196/17 131/198/17 130/197/17

v 98.8 88.6 -4.05
vt -8.23333 7.38333
f 129/196/17 132/199/17 131/198/17

v 98.8 86.55 -4.05
vt -8.23333 7.2125
f 129/196/17 133/200/17 132/199/17

v 126.05 0.05 -4.05
vt -10.5042 0.00416667
f 134/201/17 133/200/17 129/196/17

v 98.8 0.05 -4.05
vt -8.23333 0.00416667
f 133/200/17 134/201/17 135/202/17

vt -0.00984188 0.00416667
vt -0.00984188 7.2125
vt -0.343175 7.2125
vt -0.343175 0.00416667
f 107/203/16 109/204/16 133/205/16 135/206/16 

vt -8.23333 0.00984188
vn 0 -1 -0
vt -1.65 0.00984188
vt -1.65 0.343175
vt -8.23333 0.343175
f 109/207/39 119/208/39 123/209/39 133/210/39 

f 109/174/18 110/175/18 119/184/18

v 97.6613 88.6 -0.05
vt 8.13845 7.38333
f 136/211/18 119/184/18 110/175/18

v 57.6566 88.6 -0.05
vt 4.80471 7.38333
f 137/212/18 119/184/18 136/211/18

f 118/183/18 119/184/18 137/212/18

v 19.925 88.6 -0.05
vt 1.66042 7.38333
f 118/183/18 137/212/18 138/213/18

f 114/179/18 138/213/18 137/212/18

f 138/213/18 114/179/18 115/180/18

vt -0.00984188 7.38333
vn -1 4.01862e-016 3.31075e-029
vt -0.00984188 10.3302
v 19.925 123.962 -0.175
vt -0.0202585 10.3302
v 19.925 88.6 -0.175
vt -0.0202585 7.38333
f 138/214/40 115/215/40 139/216/40 140/217/40 

vt -1.66042 0.00984188
vn 0 -1 -2.81304e-015
v 19.8 123.962 -0.175
vt -1.65 0.0202585
vt -1.66042 0.0202585
f 115/218/41 116/208/41 141/219/41 139/220/41 

vt 0.00984188 10.3302
vn 1 -4.01862e-016 -3.31075e-029
vt 0.00984188 7.38333
v 19.8 88.6 -0.175
vt 0.0202585 7.38333
vt 0.0202585 10.3302
f 116/221/42 118/222/42 142/223/42 141/224/42 

vt 1.65 0.00984188
vn 0 1 2.81304e-015
vt 1.66042 0.00984188
vt 1.66042 0.0202585
vt 1.65 0.0202585
f 118/225/43 138/226/43 140/227/43 142/228/43 

vn 3.19735e-029 -2.81304e-015 1
f 140/213/44 139/180/44 141/181/44 142/183/44 

vn 1 8.99563e-044 -3.19735e-029
v 57.6566 88.6 -0.175
v 57.6566 123.962 -0.175
f 114/221/45 137/222/45 143/223/45 144/224/45 

vt 4.80471 0.00984188
v 57.7816 88.6 -0.05
vt 4.81513 0.00984188
v 57.7816 88.6 -0.175
vt 4.81513 0.0202585
vt 4.80471 0.0202585
f 137/229/43 145/230/43 146/231/43 143/232/43 

vt 4.81513 7.38333
f 137/212/18 136/211/18 145/233/18

f 112/177/18 145/233/18 136/211/18

f 145/233/18 112/177/18 113/178/18

vn -1 -8.99563e-044 3.19735e-029
v 57.7816 123.962 -0.175
f 145/214/46 113/215/46 147/216/46 146/217/46 

vt -4.81513 0.00984188
vt -4.80471 0.00984188
vt -4.80471 0.0202585
vt -4.81513 0.0202585
f 113/234/41 114/235/41 144/236/41 147/237/41 

f 146/233/44 147/178/44 144/179/44 143/212/44 

v 97.6613 88.6 -0.175
v 97.6613 123.962 -0.175
f 112/221/45 136/222/45 148/223/45 149/224/45 

vt 8.13845 0.00984188
vt 8.14886 0.00984188
v 97.7863 88.6 -0.175
vt 8.14886 0.0202585
vt 8.13845 0.0202585
f 136/238/43 110/239/43 150/240/43 148/241/43 

v 97.7863 123.962 -0.175
f 110/214/46 111/215/46 151/216/46 150/217/46 

vt -8.14886 0.00984188
vt -8.13845 0.00984188
vt -8.13845 0.0202585
vt -8.14886 0.0202585
f 111/242/41 112/243/41 149/244/41 151/245/41 

f 150/175/44 151/176/44 149/177/44 148/211/44 

f 123/192/17 126/193/17 133/200/17

v 98.675 88.6 -4.05
vt -8.22292 7.38333
f 133/200/17 126/193/17 152/246/17

v 65.9411 88.6 -4.05
vt -5.49509 7.38333
f 152/246/17 126/193/17 153/247/17

v 19.925 88.6 -4.05
vt -1.66042 7.38333
f 154/248/17 153/247/17 126/193/17

v 65.9411 123.962 -4.05
vt -5.49509 10.3302
f 153/247/17 154/248/17 155/249/17

f 155/249/17 154/248/17 128/195/17

vt -0.343175 10.3302
vt -0.343175 7.38333
v 19.925 88.6 -3.925
vt -0.332759 7.38333
v 19.925 123.962 -3.925
vt -0.332759 10.3302
f 128/250/40 154/251/40 156/252/40 157/253/40 

vt 1.66042 0.343175
vt 1.65 0.343175
v 19.8 88.6 -3.925
vt 1.65 0.332759
vt 1.66042 0.332759
f 154/254/43 126/255/43 158/256/43 156/257/43 

vt 0.343175 7.38333
vt 0.343175 10.3302
v 19.8 123.962 -3.925
vt 0.332759 10.3302
vt 0.332759 7.38333
f 126/258/42 127/259/42 159/260/42 158/261/42 

vt -1.66042 0.343175
vt -1.66042 0.332759
vt -1.65 0.332759
f 127/209/41 128/262/41 157/263/41 159/264/41 

vn -3.19735e-029 2.81304e-015 -1
f 157/195/47 156/248/47 158/193/47 159/194/47 

f 155/249/17 128/195/17 130/197/17

vt -5.49509 0.343175
vt -5.50551 0.343175
v 66.0661 123.962 -3.925
vt -5.50551 0.332759
v 65.9411 123.962 -3.925
vt -5.49509 0.332759
f 155/265/41 130/266/41 160/267/41 161/268/41 

v 66.0661 88.6 -4.05
v 66.0661 88.6 -3.925
f 130/250/46 162/251/46 163/252/46 160/253/46 

v 98.675 123.962 -4.05
vt -8.22292 10.3302
vt -5.50551 7.38333
f 164/269/17 162/270/17 130/197/17

f 152/246/17 162/270/17 164/269/17

f 162/270/17 152/246/17 153/247/17

vt 5.50551 0.343175
vt 5.49509 0.343175
v 65.9411 88.6 -3.925
vt 5.49509 0.332759
vt 5.50551 0.332759
f 162/271/43 153/272/43 165/273/43 163/274/43 

f 153/258/45 155/259/45 161/260/45 165/261/45 

f 160/197/47 163/270/47 165/247/47 161/249/47 

vn 1 8.03725e-016 -2.97055e-029
v 98.675 123.962 -3.925
v 98.675 88.6 -3.925
f 152/258/48 164/259/48 166/260/48 167/261/48 

vt -8.22292 0.343175
v 98.8 123.962 -3.925
vt -8.23333 0.332759
vt -8.22292 0.332759
f 164/275/41 131/210/41 168/276/41 166/277/41 

f 164/269/17 130/197/17 131/198/17

vn -1 -8.03725e-016 2.97055e-029
v 98.8 88.6 -3.925
f 131/250/49 132/251/49 169/252/49 168/253/49 

vt 8.23333 0.343175
vt 8.22292 0.343175
vt 8.22292 0.332759
vt 8.23333 0.332759
f 132/278/43 152/279/43 167/280/43 169/281/43 

f 132/199/17 133/200/17 152/246/17

f 168/198/47 169/199/47 167/246/47 166/269/47 

vt 10.8375 0.00984188
v 130.05 126.05 -4.05
vt 10.8375 0.343175
vt 10.5042 0.343175
vt 0.3375 0.343175
v 0.05 126.05 -4.05
vt 0.00416667 0.343175
vt 0.00416667 0.00984188
f 106/282/15 170/283/15 129/284/15 124/285/15 171/286/15 117/287/15 

v 130.05 0.05 -4.05
vt 0.343175 10.5042
vt 0.00984188 10.5042
f 108/187/14 172/188/14 170/288/14 106/289/14 

vt -0.00984188 10.5042
vn -1 -2.91874e-018 -9.19403e-017
vt -0.343175 10.5042
v 0.05 0.05 -4.05
f 117/290/50 171/291/50 173/206/50 120/203/50 

g Mesh7 Model

v 130.05 0 -4.05
vt -10.8324 0
vn 0.012499 0 -0.999922
vt -10.4991 2.08167e-017
v 126.05 126.05 -4.1
vt -10.4991 10.5042
vt -10.8324 10.5042
f 174/292/51 99/293/51 175/294/51 170/295/51 

g Mesh8 Model

vt -0.3375 1.79184e-018
vn 1.77636e-015 5.63699e-017 -1
vt -0.00416667 1.79184e-018
vt -0.00416667 10.5042
f 42/296/52 41/297/52 171/298/52 124/191/52 

